<mxfile host="app.diagrams.net" modified="2022-10-24T06:47:32.859Z" agent="5.0 (Windows NT 10.0; Win64; x64) AppleWebKit/537.36 (KHTML, like Gecko) Chrome/106.0.0.0 Safari/537.36" etag="iBFnxnyZehPaBISijyk2" version="20.2.8" type="github">
  <diagram id="UFjDRJjkYuPnafZuLWR5" name="第 1 页">
    <mxGraphModel dx="1053" dy="1728" grid="1" gridSize="10" guides="1" tooltips="1" connect="1" arrows="1" fold="1" page="1" pageScale="1" pageWidth="827" pageHeight="1169" math="0" shadow="0">
      <root>
        <mxCell id="0" />
        <mxCell id="1" parent="0" />
        <mxCell id="TMu0yX56AND41cWm_Km8-14" value="miniMapCreate.ts" style="swimlane;" vertex="1" parent="1">
          <mxGeometry x="20" y="180" width="200" height="230" as="geometry" />
        </mxCell>
        <mxCell id="TMu0yX56AND41cWm_Km8-16" value="Class MiniMap" style="text;html=1;align=center;verticalAlign=middle;resizable=0;points=[];autosize=1;strokeColor=none;fillColor=none;" vertex="1" parent="TMu0yX56AND41cWm_Km8-14">
          <mxGeometry y="40" width="100" height="30" as="geometry" />
        </mxCell>
        <mxCell id="TMu0yX56AND41cWm_Km8-27" value="" style="endArrow=none;html=1;rounded=0;" edge="1" parent="TMu0yX56AND41cWm_Km8-14">
          <mxGeometry width="50" height="50" relative="1" as="geometry">
            <mxPoint y="80" as="sourcePoint" />
            <mxPoint x="200" y="80" as="targetPoint" />
          </mxGeometry>
        </mxCell>
        <mxCell id="TMu0yX56AND41cWm_Km8-29" value="draw() //绘制底图" style="text;html=1;align=center;verticalAlign=middle;resizable=0;points=[];autosize=1;strokeColor=none;fillColor=none;" vertex="1" parent="TMu0yX56AND41cWm_Km8-14">
          <mxGeometry y="90" width="120" height="30" as="geometry" />
        </mxCell>
        <mxCell id="TMu0yX56AND41cWm_Km8-31" value="redraw() //渲染背景图和遮罩" style="text;html=1;align=center;verticalAlign=middle;resizable=0;points=[];autosize=1;strokeColor=none;fillColor=none;" vertex="1" parent="TMu0yX56AND41cWm_Km8-14">
          <mxGeometry y="140" width="170" height="30" as="geometry" />
        </mxCell>
        <mxCell id="TMu0yX56AND41cWm_Km8-32" value="showHide() //控制图层显隐" style="text;html=1;align=center;verticalAlign=middle;resizable=0;points=[];autosize=1;strokeColor=none;fillColor=none;" vertex="1" parent="TMu0yX56AND41cWm_Km8-14">
          <mxGeometry y="190" width="170" height="30" as="geometry" />
        </mxCell>
        <mxCell id="TMu0yX56AND41cWm_Km8-19" value="tool.vue" style="swimlane;" vertex="1" parent="1">
          <mxGeometry x="340" y="180" width="340" height="260" as="geometry" />
        </mxCell>
        <mxCell id="TMu0yX56AND41cWm_Km8-20" value="miniMap=new miniMap() //实例化&lt;br&gt;uoDoRedoOOP=new uoDoRedo() //实例化" style="text;html=1;align=left;verticalAlign=middle;resizable=0;points=[];autosize=1;strokeColor=none;fillColor=none;" vertex="1" parent="TMu0yX56AND41cWm_Km8-19">
          <mxGeometry x="10" y="25" width="250" height="40" as="geometry" />
        </mxCell>
        <mxCell id="TMu0yX56AND41cWm_Km8-35" value="miniMap.draw() //绘制" style="text;html=1;align=left;verticalAlign=middle;resizable=0;points=[];autosize=1;strokeColor=none;fillColor=none;" vertex="1" parent="TMu0yX56AND41cWm_Km8-19">
          <mxGeometry x="10" y="70" width="140" height="30" as="geometry" />
        </mxCell>
        <mxCell id="TMu0yX56AND41cWm_Km8-42" value="eventsTool.on(&#39;miniMapRedraw&#39;)=miniMap.redraw //重绘" style="text;html=1;align=left;verticalAlign=middle;resizable=0;points=[];autosize=1;strokeColor=none;fillColor=none;" vertex="1" parent="TMu0yX56AND41cWm_Km8-19">
          <mxGeometry x="10" y="90" width="320" height="30" as="geometry" />
        </mxCell>
        <mxCell id="TMu0yX56AND41cWm_Km8-43" value="eventsTool.on(&#39;recordUoRedo&#39;)=&lt;span style=&quot;text-align: left;&quot;&gt;uoDoRedoOOP&lt;/span&gt;.redo" style="text;html=1;align=center;verticalAlign=middle;resizable=0;points=[];autosize=1;strokeColor=none;fillColor=none;" vertex="1" parent="TMu0yX56AND41cWm_Km8-19">
          <mxGeometry y="120" width="310" height="30" as="geometry" />
        </mxCell>
        <mxCell id="TMu0yX56AND41cWm_Km8-63" value="eventsTool.on(&#39;recordUoRedo&#39;)=&lt;span style=&quot;text-align: left;&quot;&gt;uoDoRedoOOP&lt;/span&gt;.uodo" style="text;html=1;align=center;verticalAlign=middle;resizable=0;points=[];autosize=1;strokeColor=none;fillColor=none;" vertex="1" parent="TMu0yX56AND41cWm_Km8-19">
          <mxGeometry y="140" width="310" height="30" as="geometry" />
        </mxCell>
        <mxCell id="TMu0yX56AND41cWm_Km8-70" value="getUoReDoStatus=&lt;span style=&quot;text-align: left;&quot;&gt;uoDoRedoOOP.status()&lt;/span&gt;" style="text;html=1;align=center;verticalAlign=middle;resizable=0;points=[];autosize=1;strokeColor=none;fillColor=none;" vertex="1" parent="TMu0yX56AND41cWm_Km8-19">
          <mxGeometry y="180" width="250" height="30" as="geometry" />
        </mxCell>
        <mxCell id="TMu0yX56AND41cWm_Km8-71" value="recordUodoRedo=&lt;span style=&quot;text-align: left;&quot;&gt;uoDoRedoOOP.record()&lt;/span&gt;" style="text;html=1;align=center;verticalAlign=middle;resizable=0;points=[];autosize=1;strokeColor=none;fillColor=none;" vertex="1" parent="TMu0yX56AND41cWm_Km8-19">
          <mxGeometry y="205" width="250" height="30" as="geometry" />
        </mxCell>
        <mxCell id="TMu0yX56AND41cWm_Km8-28" value="" style="endArrow=none;html=1;rounded=0;" edge="1" parent="1">
          <mxGeometry width="50" height="50" relative="1" as="geometry">
            <mxPoint x="20" y="310" as="sourcePoint" />
            <mxPoint x="220" y="310" as="targetPoint" />
          </mxGeometry>
        </mxCell>
        <mxCell id="TMu0yX56AND41cWm_Km8-30" value="" style="endArrow=none;html=1;rounded=0;" edge="1" parent="1">
          <mxGeometry width="50" height="50" relative="1" as="geometry">
            <mxPoint x="20" y="360" as="sourcePoint" />
            <mxPoint x="220" y="360" as="targetPoint" />
          </mxGeometry>
        </mxCell>
        <mxCell id="TMu0yX56AND41cWm_Km8-33" value="" style="endArrow=classic;html=1;rounded=0;exitX=-0.01;exitY=0.35;exitDx=0;exitDy=0;exitPerimeter=0;" edge="1" parent="1" source="TMu0yX56AND41cWm_Km8-20">
          <mxGeometry width="50" height="50" relative="1" as="geometry">
            <mxPoint x="340" y="228" as="sourcePoint" />
            <mxPoint x="220" y="220" as="targetPoint" />
          </mxGeometry>
        </mxCell>
        <mxCell id="TMu0yX56AND41cWm_Km8-39" value="" style="endArrow=none;html=1;rounded=0;" edge="1" parent="1">
          <mxGeometry width="50" height="50" relative="1" as="geometry">
            <mxPoint x="340" y="250" as="sourcePoint" />
            <mxPoint x="680" y="250" as="targetPoint" />
          </mxGeometry>
        </mxCell>
        <mxCell id="TMu0yX56AND41cWm_Km8-45" value="" style="endArrow=none;html=1;rounded=0;" edge="1" parent="1">
          <mxGeometry width="50" height="50" relative="1" as="geometry">
            <mxPoint x="340" y="300" as="sourcePoint" />
            <mxPoint x="680" y="300" as="targetPoint" />
          </mxGeometry>
        </mxCell>
        <mxCell id="TMu0yX56AND41cWm_Km8-46" value="undo-redo.ts" style="swimlane;startSize=23;" vertex="1" parent="1">
          <mxGeometry x="20" y="-120" width="200" height="240" as="geometry" />
        </mxCell>
        <mxCell id="TMu0yX56AND41cWm_Km8-48" value="Class UodoRedo" style="text;html=1;align=center;verticalAlign=middle;resizable=0;points=[];autosize=1;strokeColor=none;fillColor=none;" vertex="1" parent="TMu0yX56AND41cWm_Km8-46">
          <mxGeometry y="30" width="110" height="30" as="geometry" />
        </mxCell>
        <mxCell id="TMu0yX56AND41cWm_Km8-49" value="record()&amp;nbsp; //记录数据" style="text;html=1;align=center;verticalAlign=middle;resizable=0;points=[];autosize=1;strokeColor=none;fillColor=none;" vertex="1" parent="TMu0yX56AND41cWm_Km8-46">
          <mxGeometry y="70" width="130" height="30" as="geometry" />
        </mxCell>
        <mxCell id="TMu0yX56AND41cWm_Km8-50" value="uodo()&amp;nbsp; //撤销" style="text;html=1;align=center;verticalAlign=middle;resizable=0;points=[];autosize=1;strokeColor=none;fillColor=none;" vertex="1" parent="TMu0yX56AND41cWm_Km8-46">
          <mxGeometry y="120" width="100" height="30" as="geometry" />
        </mxCell>
        <mxCell id="TMu0yX56AND41cWm_Km8-51" value="redo() //重做" style="text;html=1;align=center;verticalAlign=middle;resizable=0;points=[];autosize=1;strokeColor=none;fillColor=none;" vertex="1" parent="TMu0yX56AND41cWm_Km8-46">
          <mxGeometry x="5" y="170" width="90" height="30" as="geometry" />
        </mxCell>
        <mxCell id="TMu0yX56AND41cWm_Km8-52" value="status()&amp;nbsp; //获取状态" style="text;html=1;align=center;verticalAlign=middle;resizable=0;points=[];autosize=1;strokeColor=none;fillColor=none;" vertex="1" parent="TMu0yX56AND41cWm_Km8-46">
          <mxGeometry x="5" y="210" width="120" height="30" as="geometry" />
        </mxCell>
        <mxCell id="TMu0yX56AND41cWm_Km8-55" value="" style="endArrow=none;html=1;rounded=0;exitX=0.018;exitY=1.2;exitDx=0;exitDy=0;exitPerimeter=0;" edge="1" parent="1" source="TMu0yX56AND41cWm_Km8-48">
          <mxGeometry width="50" height="50" relative="1" as="geometry">
            <mxPoint x="390" y="220" as="sourcePoint" />
            <mxPoint x="220" y="-54" as="targetPoint" />
          </mxGeometry>
        </mxCell>
        <mxCell id="TMu0yX56AND41cWm_Km8-56" value="" style="endArrow=none;html=1;rounded=0;" edge="1" parent="1">
          <mxGeometry width="50" height="50" relative="1" as="geometry">
            <mxPoint x="20" y="-10" as="sourcePoint" />
            <mxPoint x="220" y="-10" as="targetPoint" />
          </mxGeometry>
        </mxCell>
        <mxCell id="TMu0yX56AND41cWm_Km8-57" value="" style="endArrow=none;html=1;rounded=0;" edge="1" parent="1">
          <mxGeometry width="50" height="50" relative="1" as="geometry">
            <mxPoint x="20" y="40" as="sourcePoint" />
            <mxPoint x="220" y="40" as="targetPoint" />
          </mxGeometry>
        </mxCell>
        <mxCell id="TMu0yX56AND41cWm_Km8-58" value="" style="endArrow=none;html=1;rounded=0;" edge="1" parent="1">
          <mxGeometry width="50" height="50" relative="1" as="geometry">
            <mxPoint x="20" y="80" as="sourcePoint" />
            <mxPoint x="220" y="80" as="targetPoint" />
          </mxGeometry>
        </mxCell>
        <mxCell id="TMu0yX56AND41cWm_Km8-60" value="" style="edgeStyle=elbowEdgeStyle;elbow=horizontal;endArrow=classic;html=1;rounded=0;exitX=0;exitY=0.75;exitDx=0;exitDy=0;exitPerimeter=0;" edge="1" parent="1" source="TMu0yX56AND41cWm_Km8-20">
          <mxGeometry width="50" height="50" relative="1" as="geometry">
            <mxPoint x="340" y="240" as="sourcePoint" />
            <mxPoint x="220" y="-80" as="targetPoint" />
          </mxGeometry>
        </mxCell>
        <mxCell id="TMu0yX56AND41cWm_Km8-61" value="" style="edgeStyle=elbowEdgeStyle;elbow=horizontal;endArrow=classic;html=1;rounded=0;exitX=-0.01;exitY=0.467;exitDx=0;exitDy=0;exitPerimeter=0;" edge="1" parent="1" source="TMu0yX56AND41cWm_Km8-42">
          <mxGeometry width="50" height="50" relative="1" as="geometry">
            <mxPoint x="390" y="220" as="sourcePoint" />
            <mxPoint x="220" y="330" as="targetPoint" />
            <Array as="points">
              <mxPoint x="320" y="290" />
            </Array>
          </mxGeometry>
        </mxCell>
        <mxCell id="TMu0yX56AND41cWm_Km8-62" value="" style="edgeStyle=elbowEdgeStyle;elbow=horizontal;endArrow=classic;html=1;rounded=0;exitX=-0.018;exitY=0.5;exitDx=0;exitDy=0;exitPerimeter=0;" edge="1" parent="1" source="TMu0yX56AND41cWm_Km8-35">
          <mxGeometry width="50" height="50" relative="1" as="geometry">
            <mxPoint x="390" y="220" as="sourcePoint" />
            <mxPoint x="220" y="280" as="targetPoint" />
          </mxGeometry>
        </mxCell>
        <mxCell id="TMu0yX56AND41cWm_Km8-67" value="" style="endArrow=none;html=1;rounded=0;exitX=-0.003;exitY=1.1;exitDx=0;exitDy=0;exitPerimeter=0;" edge="1" parent="1" source="TMu0yX56AND41cWm_Km8-63">
          <mxGeometry width="50" height="50" relative="1" as="geometry">
            <mxPoint x="340" y="360" as="sourcePoint" />
            <mxPoint x="680" y="353" as="targetPoint" />
          </mxGeometry>
        </mxCell>
        <mxCell id="TMu0yX56AND41cWm_Km8-68" value="" style="edgeStyle=elbowEdgeStyle;elbow=horizontal;endArrow=classic;html=1;rounded=0;exitX=1.003;exitY=0.467;exitDx=0;exitDy=0;exitPerimeter=0;entryX=1;entryY=0.75;entryDx=0;entryDy=0;" edge="1" parent="1" source="TMu0yX56AND41cWm_Km8-43" target="TMu0yX56AND41cWm_Km8-46">
          <mxGeometry width="50" height="50" relative="1" as="geometry">
            <mxPoint x="390" y="220" as="sourcePoint" />
            <mxPoint x="220" y="20" as="targetPoint" />
            <Array as="points">
              <mxPoint x="700" y="190" />
              <mxPoint x="720" y="290" />
            </Array>
          </mxGeometry>
        </mxCell>
        <mxCell id="TMu0yX56AND41cWm_Km8-69" value="" style="edgeStyle=elbowEdgeStyle;elbow=horizontal;endArrow=classic;html=1;rounded=0;exitX=1;exitY=0.667;exitDx=0;exitDy=0;exitPerimeter=0;" edge="1" parent="1" source="TMu0yX56AND41cWm_Km8-63">
          <mxGeometry width="50" height="50" relative="1" as="geometry">
            <mxPoint x="660" y="340" as="sourcePoint" />
            <mxPoint x="220" y="10" as="targetPoint" />
            <Array as="points">
              <mxPoint x="720" y="180" />
            </Array>
          </mxGeometry>
        </mxCell>
        <mxCell id="TMu0yX56AND41cWm_Km8-72" value="" style="edgeStyle=elbowEdgeStyle;elbow=horizontal;endArrow=classic;html=1;rounded=0;" edge="1" parent="1">
          <mxGeometry width="50" height="50" relative="1" as="geometry">
            <mxPoint x="650" y="370" as="sourcePoint" />
            <mxPoint x="220" y="100" as="targetPoint" />
            <Array as="points">
              <mxPoint x="740" y="270" />
            </Array>
          </mxGeometry>
        </mxCell>
        <mxCell id="TMu0yX56AND41cWm_Km8-73" value="" style="edgeStyle=elbowEdgeStyle;elbow=horizontal;endArrow=classic;html=1;rounded=0;" edge="1" parent="1">
          <mxGeometry width="50" height="50" relative="1" as="geometry">
            <mxPoint x="650" y="400" as="sourcePoint" />
            <mxPoint x="220" y="-30" as="targetPoint" />
            <Array as="points">
              <mxPoint x="760" y="290" />
            </Array>
          </mxGeometry>
        </mxCell>
      </root>
    </mxGraphModel>
  </diagram>
</mxfile>
